<?xml version="1.0" encoding="UTF-8" standalone="no"?>
<svg
    xmlns="http://www.w3.org/2000/svg"

    width="32"
    height="32"
    version="1.0">
    <defs>
        <filter id="blur-effect">
            <feGaussianBlur stdDeviation="0.8" />
        </filter>

        <linearGradient id="outer-grad" x1="0%" y1="0%" x2="0%" y2="100%">
            <stop id="outer-start-grad" offset="0%" style="stop-color:RGB(255,255,255);stop-opacity:1" />
            <stop id="outer-end-grad" offset="100%" style="stop-color:RGB(226,232,236);stop-opacity:1" />
        </linearGradient>
        <linearGradient id="inner-grad" x1="0%" y1="0%" x2="0%" y2="100%">
            <stop id="inner-start-grad" offset="0%" style="stop-color:RGB(255,255,255);stop-opacity:1" />
            <stop id="inner-end-grad" offset="100%" style="stop-color:RGB(255,248,159);stop-opacity:1" />
        </linearGradient>
    </defs>

    <g pointer-events="fill">
        <g id="outer" stroke="RGB(108,142,183)" fill="url(#outer-grad)" stroke-width="1" stroke-dasharray="0">
            <circle id="frame" cx="16" cy="16" r="15" />
        </g>
        <g id="inner" stroke="RGB(30,69,123)" fill="url(#inner-grad)"  stroke-width="1">
            <circle cx="16" cy="16" r="10" />
            <path d="	M 16 6 L 16 9
    		M 21 7 L 19.5 10
    		M 25 11 L 22 12.5
    		M 26 16 L 23 16
    		M 25 21 L 22 19.5
    		M 21 25 L 19.5 22
    		M 16 26 L 16 23
    		M 11 25 L 12.5 22
    		M 7 21 L 10 19.5
    		M 6 16 L 9 16
    		M 7 11 L 10 12.5
    		M 11 7 L 12.5 10
    		M 18 9 L 16 16 L 20 16"  />
        </g>
        <text font-size="11"
              id="text_name"
              x="16" y="33"
              stroke="black"
        >
        </text>
    </g>
</svg>