<?xml version="1.0" encoding="UTF-8" standalone="no"?>
<svg
   xmlns="http://www.w3.org/2000/svg"
   xmlns:svg="http://www.w3.org/2000/svg"
   
   xmlns:xlink="http://www.w3.org/1999/xlink"

   width="104"
   height="84"
   version="1.0">
<defs>
 <filter id="blur-effect">
<feGaussianBlur stdDeviation="0.8" />
</filter>
</defs>
  
  <g pointer-events="fill" >
  	<defs>
		<radialGradient id="background" cx="10%" cy="10%" r="100%" fx="10%" fy="10%">
			<stop offset="0%" stop-color="#ffffff" stop-opacity="1"/>
			<stop id="fill_el" offset="100%" stop-color="RGB(226,232,236)" stop-opacity="1"/>
		</radialGradient>
	</defs>
	
	<rect id="text_frame"  x="1" y="1" width="94" height="79" rx="10" ry="10" stroke="none" stroke-width="0" fill="none" />
    <rect id="callActivity"   x="2" y="2" width="100" height="80" rx="10" ry="10" stroke="RGB(108,142,183)" stroke-width="4" fill="none" />
	<rect id="bg_frame"  x="2" y="2" width="100" height="80" rx="10" ry="10" stroke="RGB(108,142,183)" stroke-width="1" fill="url(#background) #ffffcc" />
		<text 
			font-size="12" 
			id="text_name" 
			x="50" 
			y="40" 
			
			
			stroke="black">
		</text>
   
	
	<g id="scriptTask" transform="scale(2.5,2.5) translate(10,6)" >
		<path  id="paper" style="opacity:1;" stroke="RGB(30,69,123)"  fill="RGB(255,248,159)"
		d="M6.402,0.5h14.5c0,0-5.833,2.833-5.833,5.583s4.417,6,4.417,9.167
			s-4.167,5.083-4.167,5.083H0.235c0,0,5-2.667,5-5s-4.583-6.75-4.583-9.25S6.402,0.5,6.402,0.5z"/>
		<path  id="line1" style="opacity:1;stroke-width:1.5" stroke="RGB(30,69,123)" fill="RGB(255,248,159)" d="M 3.5 4.5 L 13.5 4.5" />
		<path  id="line2" style="opacity:1;stroke-width:1.5" stroke="RGB(30,69,123)"  fill="RGB(255,248,159)" d="M 3.8 8.5 L 13.8 8.5" />
		<path   id="line3" style="opacity:1;stroke-width:1.5" stroke="RGB(30,69,123)" d="M 6.3 12.5 L 16.3 12.5" />
		<path  id="line4" style="opacity:1;stroke-width:1.5" stroke="RGB(30,69,123)"  d="M 6.5 16.5 L 16.5 16.5" />
	</g>
	
	
  </g>
</svg>