<?xml version="1.0" encoding="UTF-8" standalone="no"?>
<svg
    xmlns="http://www.w3.org/2000/svg"
    xmlns:svg="http://www.w3.org/2000/svg"

    xmlns:xlink="http://www.w3.org/1999/xlink"

    width="312"
    height="252"
    version="1.0"
>
    <defs>
        <filter id="blur-effect">
            <feGaussianBlur stdDeviation="0.8" />
        </filter>

        <linearGradient id="outer-grad" x1="0%" y1="0%" x2="0%" y2="100%">
            <stop id="outer-start-grad" offset="0%" style="stop-color:RGB(255,255,255);stop-opacity:1" />
            <stop id="outer-end-grad" offset="100%" style="stop-color:RGB(226,232,236);stop-opacity:1" />
        </linearGradient>
        <linearGradient id="inner-grad" x1="0%" y1="0%" x2="0%" y2="100%">
            <stop id="inner-start-grad" offset="0%" style="stop-color:RGB(255,255,255);stop-opacity:1" />
            <stop id="inner-end-grad" offset="100%" style="stop-color:RGB(255,248,159);stop-opacity:1" />
        </linearGradient>
    </defs>

    <g pointer-events="fill" >




        <g id="outer"  stroke="RGB(108,142,183)" fill="url(#outer-grad)" stroke-width="1">
            <rect id="OUTLINE"  x="2" y="2" w="308" h="248" width="308" height="248" rx="10" ry="10"/>
        </g>


        <g id="standard" stroke="RGB(30,69,123)"  stroke-width="1" opacity="0" x="106" y="170" transform="translate(106,170)">
            <path style="opacity:1;fill:none;fill-opacity:1;stroke-linecap:round;stroke-linejoin:round;stroke-miterlimit:2.0999999;stroke-dasharray:none;stroke-opacity:1"
                  d="M 49.5,72 L 49.5,75 L 46.5,75 M 49.5,75 A 4.875,4.875 0 1 1 53.5,75" />
        </g>
        <g id="parallel" stroke="RGB(30,69,123)" stroke-width="1" opacity="0" x="106" y="170" transform="translate(106,170)">
            <path id="parallelpath"  fill="none"  d="M46 65 v10 M50 65 v10 M54 65 v10" />
        </g>
        <g id="sequential" stroke="RGB(30,69,123)" stroke-width="1" opacity="0" x="106" y="170" transform="translate(106,170)">
            <path id="sequentialpath"  fill="none" d="M45,67 h10 M45,71 h10 M45,75 h10"/>
        </g>
        <g id="compensation" stroke="RGB(30,69,123)" stroke-width="1" opacity="0" x="105" y="170" transform="translate(105,170)">
            <path id="compensationpath"  fill="none" d="M 50 70 L 55 65 L 55 75z M44.7 70 L49.7 75 L 49.7 65z"
                  transform="translate(-13)" />
        </g>

        <g id="adhoc" stroke="RGB(30,69,123)" fill="RGB(30,69,123)" stroke-width="1" opacity="1" x="120" y="170" transform="translate(120,170)">
            <path  id="adhocpath"
                   d="m 55,70 0,2.0343 c -0.54305,0.60192 -1.04853,1.0324 -1.51647,1.29142 -0.46216,0.25908 -0.94744,0.38857 -1.4558,0.38857 -0.57194,0 -1.23628,-0.22473 -1.99307,-0.67428 -0.0577,-0.0306 -0.10111,-0.0534 -0.12999,-0.0687 -0.0346,-0.0228 -0.0896,-0.0533 -0.16464,-0.0915 -0.80878,-0.47234 -1.4558,-0.70857 -1.94107,-0.70857 -0.46217,0 -0.91566,0.14858 -1.36047,0.44576 -0.44485,0.2895 -0.92434,0.75046 -1.43849,1.38285 l 0,-2.03429 c 0.54881,-0.60194 1.05431,-1.0324 1.51647,-1.29147 0.46793,-0.26666 0.9532,-0.39999 1.45581,-0.39999 0.57191,0 1.24205,0.22856 2.01039,0.68574 0.0461,0.0308 0.0838,0.0533 0.11266,0.0687 0.0404,0.0228 0.0982,0.0533 0.1733,0.0913 0.803,0.4724 1.45002,0.70861 1.94108,0.70857 0.44481,4e-5 0.88676,-0.14475 1.32581,-0.43429 0.43905,-0.2895 0.9272,-0.75425 1.46448,-1.39428"
            />
        </g>

    </g>
</svg>