<?xml version="1.0" encoding="UTF-8" standalone="no"?>
<svg
    xmlns="http://www.w3.org/2000/svg"
    xmlns:svg="http://www.w3.org/2000/svg"
    
    xmlns:xlink="http://www.w3.org/1999/xlink"

    width="312"
    height="252"
    version="1.0"
>
<defs>
 <filter id="blur-effect">
<feGaussianBlur stdDeviation="0.8" />
</filter>

    <linearGradient id="outer-grad" x1="0%" y1="0%" x2="0%" y2="100%">
      <stop id="outer-start-grad" offset="0%" style="stop-color:RGB(255,255,255);stop-opacity:1" />
      <stop id="outer-end-grad" offset="100%" style="stop-color:RGB(226,232,236);stop-opacity:1" />
    </linearGradient>
     <linearGradient id="inner-grad" x1="0%" y1="0%" x2="0%" y2="100%">
      <stop id="inner-start-grad" offset="0%" style="stop-color:RGB(255,255,255);stop-opacity:1" />
      <stop id="inner-end-grad" offset="100%" style="stop-color:RGB(255,248,159);stop-opacity:1" />
    </linearGradient>
  </defs>
    
    <g pointer-events="fill" >
  
	  
            
          
       <g id="outer"  stroke="RGB(108,142,183)" fill="url(#outer-grad)" stroke-width="1">
            <rect id="OUTLINE"  x="2" y="2"  w="308" h="248" width="308" height="248" rx="10" ry="10"/>
              <rect x="5" y="5" width="302" height="242" rx="10" ry="10"/>
      </g>
      
 <g id="standard" stroke="RGB(30,69,123)"  stroke-width="1" opacity="0" x="106" y="170" transform="translate(106,170)">
		<path style="opacity:1;fill:none;fill-opacity:1;stroke-linecap:round;stroke-linejoin:round;stroke-miterlimit:2.0999999;stroke-dasharray:none;stroke-opacity:1"
	        d="M 49.5,72 L 49.5,75 L 46.5,75 M 49.5,75 A 4.875,4.875 0 1 1 53.5,75" />
	</g>	
	<g id="parallel" stroke="RGB(30,69,123)" stroke-width="1" opacity="0" x="106" y="170" transform="translate(106,170)">
		<path id="parallelpath"  fill="none"  d="M46 65 v10 M50 65 v10 M54 65 v10" />
	</g>
	<g id="sequential" stroke="RGB(30,69,123)" stroke-width="1" opacity="0" x="106" y="170" transform="translate(106,170)">
		<path id="sequentialpath"  fill="none" d="M45,67 h10 M45,71 h10 M45,75 h10"/>
	</g>
	<g id="compensation" stroke="RGB(30,69,123)" stroke-width="1" opacity="0" x="105" y="170" transform="translate(105,170)">
		<path id="compensationpath"  fill="none" d="M 50 70 L 55 65 L 55 75z M44.7 70 L49.7 75 L 49.7 65z"
		transform="translate(-13)" />
	</g>
	
    </g>
</svg>